# xmcd CD database file
#
# Track frame offsets:
#	150
#	14488
#	33230
#	47363
#	67755
#	79728
#	91213
#	98598
#	104393
#	115383
#	137675
#	151120
#	161300
#	169580
#	187598
#	193695
#	207440
#	217775
#	230268
#	247920
#	265545
#	280848
#	294170
#	303350
#	312573
#	333768
#	345248
#
# Disc length: 4758 seconds
#
# Revision: 2
# Processed by: cddbd v1.5.2PL0 Copyright (c) Steve Scherf et al.
# Submitted via: CDex 1.51
#
DISCID=4e12941b
DTITLE=Edvard Grieg - Songs - Lieder Vol.6
DYEAR=1991
DGENRE=Classique
TTITLE0=Songs and Ballads by A.Munch, Op.9 - The Harp
TTITLE1=Songs and Ballads by A.Munch, Op.9 - Cradle Song
TTITLE2=Songs and Ballads by A.Munch, Op.9 - Sunset
TTITLE3=Songs and Ballads by A.Munch, Op.9 - Outward bound
TTITLE4=Five Poems by John Paulsen, Op.26 - Hope
TTITLE5=Five Poems by John Paulsen, Op.26 - I Walked on balmy summer eve
TTITLE6=Five Poems by John Paulsen, Op.26 - You wispered that you lived me
TTITLE7=Five Poems by John Paulsen, Op.26 - The first primrose
TTITLE8=Five Poems by John Paulsen, Op.26 - Autumn Thoughts
TTITLE9=Romances Op 39 - From Monte Pincio
TTITLE10=Romances Op.39 - Hidden Love
TTITLE11=Romances Op.39 - Upon a Grassy Hillside
TTITLE12=Romances Op.39 - Neath the roses
TTITLE13=Romances Op.39 - At The Grave of a young wife
TTITLE14=Romances Op.39 - Hearing a song or carol
TTITLE15=Five Songs by Otto Benzon, Op.69 - A boat on the waves is rocking
TTITLE16=Five Songs by Otto Benzon, Op.69 - To my son
TTITLE17=Five Songs by Otto Benzon, Op.69 - At Mother's Grave
TTITLE18=Five Songs by Otto Benzon, Op.69 - Snail, Snail!
TTITLE19=Five Songs by Otto Benzon, Op.69 - Dreams
TTITLE20=Five Songs by Otto Benzon, Op.70 - Eros
TTITLE21=Five Songs by Otto Benzon, Op.70 - A Life Longing
TTITLE22=Five Songs by Otto Benzon, Op.70 - Summer night
TTITLE23=Five Songs by Otto Benzon, Op.70 - Walk with Care
TTITLE24=Five Songs by Otto Benzon, Op.70 - A Poet's Song
TTITLE25=The Singing Congregation, EG 122
TTITLE26=Ave, Maris Stella, EG 150
EXTD=YEAR: 1991
EXTT0=
EXTT1=
EXTT2=
EXTT3=
EXTT4=
EXTT5=
EXTT6=
EXTT7=
EXTT8=
EXTT9=
EXTT10=
EXTT11=
EXTT12=
EXTT13=
EXTT14=
EXTT15=
EXTT16=
EXTT17=
EXTT18=
EXTT19=
EXTT20=
EXTT21=
EXTT22=
EXTT23=
EXTT24=
EXTT25=
EXTT26=
PLAYORDER=
